<svg xmlns="http://www.w3.org/2000/svg" xmlns:xlink="http://www.w3.org/1999/xlink" width="500" zoomAndPan="magnify" viewBox="0 0 375 374.999991" height="500" preserveAspectRatio="xMidYMid meet" version="1.0"><defs><clipPath id="00f22fc9a8"><path d="M 139.542969 194 L 192 194 L 192 247 L 139.542969 247 Z M 139.542969 194 " clip-rule="nonzero"/></clipPath><clipPath id="05f748c43f"><path d="M 272 263 L 312 263 L 312 302.972656 L 272 302.972656 Z M 272 263 " clip-rule="nonzero"/></clipPath><clipPath id="f25cd8d02e"><path d="M 341 157 L 360.792969 157 L 360.792969 177 L 341 177 Z M 341 157 " clip-rule="nonzero"/></clipPath><clipPath id="fe78931e11"><path d="M 193 282 L 214 282 L 214 302.972656 L 193 302.972656 Z M 193 282 " clip-rule="nonzero"/></clipPath><clipPath id="95a060c4b1"><path d="M 14.066406 132 L 118 132 L 118 254 L 14.066406 254 Z M 14.066406 132 " clip-rule="nonzero"/></clipPath><clipPath id="aa8f1eb314"><path d="M 14.066406 150 L 28 150 L 28 167 L 14.066406 167 Z M 14.066406 150 " clip-rule="nonzero"/></clipPath><clipPath id="c9a902d636"><path d="M 104.53125 152.914062 L 118.117188 152.914062 L 118.117188 168.039062 L 104.53125 168.039062 Z M 104.53125 152.914062 " clip-rule="nonzero"/></clipPath></defs><g clip-path="url(#00f22fc9a8)"><path fill="#fed9e9" d="M 191.148438 220.367188 C 169.683594 222.765625 167.742188 224.703125 165.34375 246.171875 C 162.949219 224.703125 161.007812 222.765625 139.542969 220.367188 C 161.007812 217.972656 162.949219 216.03125 165.34375 194.5625 C 167.742188 216.03125 169.683594 217.972656 191.148438 220.367188 " fill-opacity="1" fill-rule="nonzero"/></g><path fill="#fed9e9" d="M 291.621094 110.582031 C 259.722656 114.140625 256.839844 117.035156 253.285156 148.921875 C 249.726562 117.035156 246.84375 114.140625 214.945312 110.582031 C 246.84375 107.027344 249.726562 104.144531 253.285156 72.246094 C 256.839844 104.144531 259.722656 107.027344 291.621094 110.582031 " fill-opacity="1" fill-rule="nonzero"/><path fill="#fed9e9" d="M 294.851562 216.636719 C 281.253906 218.15625 280.019531 219.382812 278.511719 232.976562 C 276.984375 219.382812 275.757812 218.15625 262.164062 216.636719 C 275.757812 215.121094 276.984375 213.894531 278.511719 200.289062 C 280.019531 213.894531 281.253906 215.121094 294.851562 216.636719 " fill-opacity="1" fill-rule="nonzero"/><g clip-path="url(#05f748c43f)"><path fill="#fed9e9" d="M 311.191406 283.175781 C 294.90625 284.984375 293.441406 286.460938 291.621094 302.742188 C 289.808594 286.460938 288.335938 284.984375 272.050781 283.175781 C 288.335938 281.351562 289.808594 279.878906 291.621094 263.59375 C 293.441406 279.878906 294.90625 281.351562 311.191406 283.175781 " fill-opacity="1" fill-rule="nonzero"/></g><g clip-path="url(#f25cd8d02e)"><path fill="#fed9e9" d="M 360.933594 167.144531 C 352.789062 168.054688 352.054688 168.792969 351.140625 176.933594 C 350.230469 168.792969 349.492188 168.054688 341.351562 167.144531 C 349.492188 166.234375 350.230469 165.496094 351.140625 157.355469 C 352.054688 165.496094 352.789062 166.234375 360.933594 167.144531 " fill-opacity="1" fill-rule="nonzero"/></g><g clip-path="url(#fe78931e11)"><path fill="#fed9e9" d="M 213.253906 292.507812 C 205.113281 293.421875 204.375 294.15625 203.464844 302.300781 C 202.566406 294.15625 201.828125 293.421875 193.6875 292.507812 C 201.828125 291.609375 202.566406 290.871094 203.464844 282.730469 C 204.375 290.871094 205.113281 291.609375 213.253906 292.507812 " fill-opacity="1" fill-rule="nonzero"/></g><path fill="#ffffff" d="M 216.789062 181.824219 C 216.789062 184.523438 214.601562 186.714844 211.890625 186.714844 C 209.191406 186.714844 207 184.523438 207 181.824219 C 207 179.125 209.191406 176.933594 211.890625 176.933594 C 214.601562 176.933594 216.789062 179.125 216.789062 181.824219 " fill-opacity="1" fill-rule="nonzero"/><path fill="#ffffff" d="M 175.125 123.820312 C 175.125 126.519531 172.933594 128.710938 170.234375 128.710938 C 167.535156 128.710938 165.34375 126.519531 165.34375 123.820312 C 165.34375 121.121094 167.535156 118.929688 170.234375 118.929688 C 172.933594 118.929688 175.125 121.121094 175.125 123.820312 " fill-opacity="1" fill-rule="nonzero"/><path fill="#ffffff" d="M 316.75 186.714844 C 316.75 187.65625 315.980469 188.417969 315.039062 188.417969 C 314.105469 188.417969 313.335938 187.65625 313.335938 186.714844 C 313.335938 185.769531 314.105469 185.011719 315.039062 185.011719 C 315.980469 185.011719 316.75 185.769531 316.75 186.714844 " fill-opacity="1" fill-rule="nonzero"/><path fill="#ffffff" d="M 349.777344 244.285156 C 349.777344 246.238281 348.191406 247.820312 346.242188 247.820312 C 344.289062 247.820312 342.707031 246.238281 342.707031 244.285156 C 342.707031 242.332031 344.289062 240.75 346.242188 240.75 C 348.191406 240.75 349.777344 242.332031 349.777344 244.285156 " fill-opacity="1" fill-rule="nonzero"/><path fill="#ffffff" d="M 318.257812 120.285156 C 318.257812 122.238281 316.6875 123.820312 314.734375 123.820312 C 312.785156 123.820312 311.191406 122.238281 311.191406 120.285156 C 311.191406 118.335938 312.785156 116.753906 314.734375 116.753906 C 316.6875 116.753906 318.257812 118.335938 318.257812 120.285156 " fill-opacity="1" fill-rule="nonzero"/><path fill="#ffffff" d="M 210.535156 267.660156 C 210.535156 269.613281 208.949219 271.183594 207 271.183594 C 205.046875 271.183594 203.464844 269.613281 203.464844 267.660156 C 203.464844 265.699219 205.046875 264.113281 207 264.113281 C 208.949219 264.113281 210.535156 265.699219 210.535156 267.660156 " fill-opacity="1" fill-rule="nonzero"/><path fill="#d1daea" d="M 305.109375 237.726562 L 288.054688 251.550781 L 217.039062 164 L 234.09375 150.15625 L 305.109375 237.726562 " fill-opacity="1" fill-rule="nonzero"/><path fill="#9cafcc" d="M 288.054688 251.550781 L 268.453125 267.441406 L 234.582031 185.628906 Z M 288.054688 251.550781 " fill-opacity="1" fill-rule="nonzero"/><path fill="#d1daea" d="M 305.109375 237.726562 L 324.710938 221.820312 L 251.636719 171.796875 Z M 305.109375 237.726562 " fill-opacity="1" fill-rule="nonzero"/><path fill="#9cafcc" d="M 305.109375 237.726562 L 324.710938 221.820312 L 251.636719 171.796875 Z M 305.109375 237.726562 " fill-opacity="1" fill-rule="nonzero"/><path fill="#232946" d="M 260.871094 249.132812 L 268.453125 267.441406 L 288.054688 251.550781 L 276.082031 236.792969 L 260.871094 249.132812 " fill-opacity="1" fill-rule="nonzero"/><path fill="#232946" d="M 243.253906 196.320312 L 234.582031 185.628906 L 240.078125 198.902344 Z M 243.253906 196.320312 " fill-opacity="1" fill-rule="nonzero"/><path fill="#232946" d="M 241.78125 203 L 245.042969 210.902344 L 251.09375 205.992188 L 245.945312 199.628906 L 241.78125 203 " fill-opacity="1" fill-rule="nonzero"/><path fill="#d1daea" d="M 293.128906 222.957031 L 305.109375 237.726562 L 324.710938 221.820312 L 308.339844 210.621094 L 293.128906 222.957031 " fill-opacity="1" fill-rule="nonzero"/><path fill="#232946" d="M 293.128906 222.957031 L 305.109375 237.726562 L 324.710938 221.820312 L 308.339844 210.621094 L 293.128906 222.957031 " fill-opacity="1" fill-rule="nonzero"/><path fill="#d1daea" d="M 263.484375 179.917969 L 251.636719 171.796875 L 260.308594 182.488281 Z M 263.484375 179.917969 " fill-opacity="1" fill-rule="nonzero"/><path fill="#232946" d="M 263.484375 179.917969 L 251.636719 171.796875 L 260.308594 182.488281 Z M 263.484375 179.917969 " fill-opacity="1" fill-rule="nonzero"/><path fill="#d1daea" d="M 262.988281 185.792969 L 268.148438 192.15625 L 274.207031 187.257812 L 267.148438 182.421875 L 262.988281 185.792969 " fill-opacity="1" fill-rule="nonzero"/><path fill="#232946" d="M 262.988281 185.792969 L 268.148438 192.15625 L 274.207031 187.257812 L 267.148438 182.421875 L 262.988281 185.792969 " fill-opacity="1" fill-rule="nonzero"/><path fill="#9cafcc" d="M 204.027344 130.238281 L 204.019531 130.25 L 203.757812 130.457031 L 203.734375 130.46875 L 218.535156 162.777344 L 225.429688 157.179688 L 225.691406 156.976562 L 232.585938 151.382812 L 204.027344 130.238281 " fill-opacity="1" fill-rule="nonzero"/><g clip-path="url(#95a060c4b1)"><path fill="#d1daea" d="M 117.210938 161.890625 C 116.648438 161.890625 115.796875 162.226562 115.339844 162.40625 C 115.242188 162.445312 115.164062 162.476562 115.101562 162.5 L 114.792969 162.015625 C 114.960938 161.847656 115.121094 161.679688 115.28125 161.511719 C 115.675781 161.097656 116.082031 160.671875 116.589844 160.269531 C 116.675781 160.203125 116.765625 160.132812 116.855469 160.066406 C 117.507812 159.574219 117.902344 159.242188 117.808594 158.636719 C 117.761719 158.351562 117.644531 158.296875 117.464844 158.296875 C 117.160156 158.296875 116.738281 158.488281 116.429688 158.628906 L 116.316406 158.679688 C 115.851562 158.890625 115.414062 159.121094 115.015625 159.375 L 114.621094 158.949219 C 114.796875 158.71875 115.007812 158.503906 115.210938 158.300781 C 115.304688 158.207031 115.394531 158.113281 115.484375 158.019531 C 115.582031 157.910156 115.710938 157.789062 115.851562 157.660156 C 116.316406 157.21875 116.957031 156.613281 116.863281 156.132812 C 116.800781 155.804688 116.394531 155.628906 116.042969 155.628906 C 116.015625 155.628906 115.988281 155.632812 115.964844 155.632812 C 115.597656 155.664062 115.296875 155.921875 114.976562 156.199219 C 114.871094 156.289062 114.765625 156.378906 114.660156 156.460938 C 114.132812 156.867188 113.597656 157.273438 113.066406 157.671875 L 112.625 157.304688 C 112.804688 156.941406 113.066406 156.542969 113.339844 156.117188 C 113.746094 155.496094 114.164062 154.851562 114.328125 154.328125 C 114.449219 153.929688 114.453125 153.625 114.339844 153.46875 C 114.230469 153.320312 113.996094 153.289062 113.820312 153.289062 C 113.398438 153.289062 112.820312 153.464844 112.34375 153.738281 C 110.949219 154.503906 109.546875 155.699219 108.402344 157.105469 L 108.089844 157.476562 C 107.140625 158.613281 105.648438 160.394531 105.03125 162.085938 C 102.671875 162.507812 101.4375 165.96875 98.476562 167.785156 C 89.441406 173.320312 83.132812 173.988281 79.382812 173.785156 C 83.480469 171.617188 86.066406 167.902344 87.453125 163.746094 C 88.882812 163.066406 89.929688 160.882812 89.929688 158.28125 C 89.929688 156.492188 89.433594 154.902344 88.660156 153.859375 C 88.441406 150.699219 87.675781 147.777344 86.484375 145.5625 C 81.375 135.992188 70.523438 131.054688 60.941406 133.691406 C 51.109375 136.464844 46.214844 141.316406 43.402344 152.132812 C 43.277344 152.617188 43.179688 153.128906 43.105469 153.65625 C 42.085938 154.640625 41.402344 156.472656 41.402344 158.574219 C 41.402344 161.433594 42.667969 163.792969 44.3125 164.195312 C 45.796875 168.5625 48.449219 172.527344 52.132812 174.3125 L 51.175781 174.332031 L 49.9375 179.523438 L 51.175781 174.332031 C 48.339844 173.5625 43.898438 171.796875 38.410156 168.464844 C 37.234375 167.75 33.613281 164.746094 32.902344 163.574219 C 32.375 162.695312 30.089844 160.003906 29.09375 159.5625 C 28.539062 159.3125 27.964844 159.375 27.40625 159.59375 C 26.828125 157.859375 25.265625 155.996094 24.285156 154.824219 L 23.972656 154.453125 C 22.828125 153.046875 21.429688 151.851562 20.027344 151.082031 C 19.554688 150.8125 18.976562 150.636719 18.554688 150.636719 C 18.378906 150.636719 18.148438 150.667969 18.035156 150.816406 C 17.921875 150.972656 17.925781 151.277344 18.046875 151.671875 C 18.214844 152.199219 18.632812 152.84375 19.035156 153.464844 C 19.308594 153.886719 19.570312 154.289062 19.75 154.652344 L 19.3125 155.019531 C 18.777344 154.617188 18.246094 154.214844 17.714844 153.808594 C 17.609375 153.726562 17.507812 153.636719 17.402344 153.546875 C 17.082031 153.269531 16.78125 153.011719 16.414062 152.980469 C 16.386719 152.980469 16.359375 152.976562 16.332031 152.976562 C 15.980469 152.976562 15.574219 153.152344 15.511719 153.480469 C 15.421875 153.960938 16.058594 154.566406 16.527344 155.007812 C 16.664062 155.140625 16.792969 155.257812 16.894531 155.367188 C 16.980469 155.460938 17.074219 155.554688 17.167969 155.648438 C 17.371094 155.851562 17.582031 156.0625 17.757812 156.296875 L 17.363281 156.722656 C 16.964844 156.46875 16.527344 156.234375 16.058594 156.027344 L 15.945312 155.976562 C 15.636719 155.835938 15.21875 155.644531 14.910156 155.644531 C 14.730469 155.644531 14.617188 155.699219 14.570312 155.980469 C 14.472656 156.589844 14.867188 156.921875 15.519531 157.414062 C 15.609375 157.480469 15.699219 157.550781 15.785156 157.621094 C 16.292969 158.015625 16.699219 158.445312 17.09375 158.859375 C 17.253906 159.027344 17.414062 159.195312 17.582031 159.363281 L 17.273438 159.847656 C 17.210938 159.824219 17.132812 159.792969 17.035156 159.753906 C 16.578125 159.574219 15.730469 159.238281 15.167969 159.238281 C 14.769531 159.238281 14.769531 159.394531 14.769531 159.519531 C 14.769531 159.847656 15.523438 160.476562 16.074219 160.933594 C 16.566406 161.34375 17.027344 161.730469 17.226562 162.0625 C 17.433594 162.378906 17.605469 162.699219 17.769531 163.007812 C 18.121094 163.667969 18.453125 164.289062 19.085938 164.796875 C 19.519531 165.160156 20.492188 165.898438 21.566406 166.207031 C 21.207031 167.25 21.089844 168.324219 21.386719 169.320312 C 22.152344 171.875 24.304688 174.410156 25.929688 176.480469 C 27.648438 178.675781 29.691406 180.675781 31.734375 182.566406 C 37.460938 187.855469 47.660156 186.058594 47.664062 189.097656 L 47.660156 189.097656 C 47.660156 190.4375 48.390625 202.917969 50.414062 212.113281 C 50.570312 212.820312 50.941406 213.320312 51.4375 213.679688 C 54.265625 222.5625 58.171875 229.21875 60.226562 231.421875 C 66.25 238.027344 69.375 237.351562 78.1875 235.734375 C 83.464844 241.394531 89.523438 243.140625 95.804688 244.652344 C 97.160156 244.976562 99.789062 245.5 100.800781 246.417969 C 102.003906 247.511719 100.164062 249.742188 101.3125 251.277344 C 103.074219 254.214844 105.277344 253.039062 106.308594 250.835938 C 107.335938 248.925781 111.886719 240.117188 109.246094 238.648438 C 108.035156 237.972656 106.632812 237.6875 105.421875 236.960938 C 104.316406 236.296875 103.234375 235.585938 102.148438 234.898438 C 99.921875 233.496094 97.734375 231.886719 96.066406 229.835938 C 95.851562 229.570312 95.644531 229.296875 95.453125 229.015625 C 95.714844 229.066406 95.871094 229.089844 95.871094 229.089844 L 96.167969 229.089844 C 96.132812 229.277344 96.09375 229.460938 96.050781 229.648438 C 96.53125 229.53125 96.980469 229.46875 97.351562 229.5 C 97.433594 229.507812 97.515625 229.519531 97.585938 229.542969 C 97.609375 229.433594 97.625 229.320312 97.644531 229.207031 C 98.25 229.53125 98.898438 230.363281 99.226562 231.003906 C 99.621094 231.769531 100.023438 232.566406 100.847656 232.796875 L 100.875 232.804688 C 101.457031 233.035156 101.988281 233.152344 102.445312 233.152344 C 103.0625 233.152344 103.542969 232.941406 103.875 232.527344 C 104.367188 231.921875 104.507812 230.878906 104.257812 229.726562 C 103.417969 224.5 101.699219 218.394531 99.597656 218.394531 C 99.546875 218.394531 99.496094 218.398438 99.445312 218.40625 C 98.804688 218.5 98.1875 218.679688 97.535156 218.871094 C 97.234375 218.960938 96.617188 219.050781 96.308594 219.132812 C 96.320312 219.175781 96.332031 219.214844 96.34375 219.257812 C 96.304688 219.148438 96.265625 219.035156 96.226562 218.925781 C 95.910156 219 95.585938 219.0625 95.253906 219.097656 C 95.089844 219.117188 94.929688 219.132812 94.765625 219.148438 C 94.800781 219.253906 94.835938 219.359375 94.875 219.464844 C 94.476562 219.503906 93.769531 219.539062 93.375 219.574219 C 93.414062 219.910156 93.347656 220.253906 93.203125 220.597656 C 92.710938 216.777344 92.347656 212.441406 92.347656 209.8125 L 92.34375 209.8125 C 92.597656 209.609375 92.816406 209.375 92.949219 209.097656 C 93.492188 207.980469 92.742188 206.324219 92.328125 205.28125 C 91.53125 203.261719 91.128906 201.234375 90.699219 199.117188 C 90.269531 196.988281 89.578125 194.910156 89.246094 192.761719 C 88.921875 190.671875 88.738281 188.335938 88.832031 186.21875 C 95.8125 185.09375 98.820312 184.53125 104.328125 180.199219 C 107.167969 177.96875 107.140625 177.8125 109.460938 175.035156 C 111.246094 172.882812 113.84375 170.144531 112.929688 167.738281 C 113.074219 167.628906 113.199219 167.527344 113.296875 167.445312 C 113.925781 166.941406 114.257812 166.320312 114.609375 165.660156 C 114.773438 165.351562 114.945312 165.03125 115.144531 164.722656 C 115.347656 164.382812 115.8125 163.996094 116.304688 163.585938 C 116.851562 163.128906 117.605469 162.503906 117.605469 162.175781 C 117.605469 162.046875 117.605469 161.890625 117.210938 161.890625 " fill-opacity="1" fill-rule="nonzero"/></g><path fill="#9cafcc" d="M 96.050781 229.648438 C 96.015625 229.65625 95.976562 229.667969 95.941406 229.675781 C 95.976562 229.664062 96.015625 229.65625 96.050781 229.648438 " fill-opacity="1" fill-rule="nonzero"/><path fill="#9cafcc" d="M 99.035156 231.273438 C 98.636719 230.503906 98.289062 229.746094 97.585938 229.546875 L 97.585938 229.542969 C 98.292969 229.738281 98.640625 230.5 99.035156 231.273438 " fill-opacity="1" fill-rule="nonzero"/><path fill="#9cafcc" d="M 37.191406 167.59375 C 36.089844 170.230469 34.839844 172.800781 33.121094 175.105469 C 32.136719 176.429688 30.925781 177.605469 29.667969 178.671875 C 29.335938 178.957031 28.976562 179.246094 28.597656 179.519531 C 29.007812 179.945312 29.421875 180.359375 29.839844 180.769531 C 29.902344 180.726562 29.964844 180.679688 30.027344 180.636719 C 31.507812 179.519531 32.867188 178.207031 34.042969 176.777344 C 36.042969 174.335938 37.453125 171.515625 38.671875 168.621094 C 38.585938 168.566406 38.496094 168.515625 38.410156 168.464844 C 38.121094 168.289062 37.691406 167.980469 37.191406 167.59375 " fill-opacity="1" fill-rule="nonzero"/><path fill="#9cafcc" d="M 93.042969 219.304688 C 93.355469 221.9375 93.738281 224.453125 94.117188 226.164062 C 94.460938 227.464844 95.117188 228.628906 95.941406 229.675781 C 95.980469 229.667969 96.015625 229.65625 96.050781 229.648438 C 96.886719 226.089844 95.980469 222.558594 94.765625 219.148438 C 94.191406 219.203125 93.617188 219.257812 93.042969 219.304688 " fill-opacity="1" fill-rule="nonzero"/><path fill="#9cafcc" d="M 100.765625 233.078125 C 104.011719 234.359375 105.070312 232.070312 104.546875 229.679688 C 104.203125 227.519531 102.453125 217.679688 99.402344 218.117188 C 98.324219 218.269531 97.296875 218.671875 96.230469 218.921875 C 97.433594 222.378906 98.3125 225.945312 97.585938 229.546875 C 98.992188 229.9375 98.984375 232.578125 100.765625 233.078125 " fill-opacity="1" fill-rule="nonzero"/><path fill="#9cafcc" d="M 67.949219 218.789062 L 67.664062 218.863281 C 70.203125 228.4375 74.050781 232.046875 77.140625 234.949219 C 77.4375 235.226562 77.726562 235.5 78.007812 235.769531 C 78.066406 235.757812 78.125 235.746094 78.1875 235.734375 L 78.289062 235.628906 C 77.984375 235.335938 77.667969 235.039062 77.34375 234.730469 C 74.277344 231.855469 70.464844 228.28125 67.949219 218.789062 " fill-opacity="1" fill-rule="nonzero"/><path fill="#9cafcc" d="M 105.421875 236.960938 C 104.886719 236.640625 104.363281 236.308594 103.835938 235.976562 C 103.761719 237.652344 103.398438 239.292969 102.648438 240.847656 C 101.796875 242.617188 100.5625 244.15625 99.203125 245.566406 C 99.855469 245.804688 100.433594 246.085938 100.800781 246.417969 C 100.804688 246.421875 100.808594 246.425781 100.808594 246.429688 C 102.125 245.011719 103.3125 243.476562 104.175781 241.742188 C 104.921875 240.246094 105.359375 238.652344 105.535156 237.019531 C 105.496094 237 105.457031 236.980469 105.421875 236.960938 " fill-opacity="1" fill-rule="nonzero"/><path fill="#9cafcc" d="M 102.703125 181.417969 C 103.167969 181.085938 103.652344 180.722656 104.15625 180.332031 C 102.878906 179.261719 101.734375 178.046875 100.761719 176.859375 C 98.957031 174.648438 97.234375 171.699219 96.90625 168.710938 C 96.347656 169.027344 95.800781 169.328125 95.261719 169.613281 C 95.804688 172.671875 97.527344 175.59375 99.390625 177.957031 C 100.347656 179.167969 101.464844 180.355469 102.703125 181.417969 " fill-opacity="1" fill-rule="nonzero"/><path fill="#9cafcc" d="M 92.757812 206.382812 C 92.648438 206.585938 92.542969 206.789062 92.433594 206.992188 C 92.058594 207.699219 91.699219 208.0625 90.972656 208.445312 C 89.988281 208.964844 88.960938 209.273438 87.867188 209.488281 C 83.445312 210.363281 79.011719 211.261719 74.570312 212.050781 C 71.746094 212.546875 68.902344 212.925781 66.046875 213.105469 C 65.75 213.125 65.449219 213.144531 65.148438 213.160156 C 63.992188 213.214844 62.832031 213.242188 61.671875 213.222656 C 59.382812 213.191406 57.101562 212.988281 54.839844 212.652344 C 53.53125 212.457031 51.765625 212.421875 50.710938 211.515625 C 50.5 211.332031 50.390625 211.117188 50.320312 210.851562 C 50.269531 210.664062 50.179688 210.523438 50.0625 210.421875 C 50.175781 210.996094 50.292969 211.5625 50.414062 212.113281 C 50.570312 212.820312 50.941406 213.316406 51.4375 213.679688 C 51.558594 213.765625 51.683594 213.84375 51.816406 213.914062 C 51.828125 213.917969 51.839844 213.921875 51.851562 213.925781 C 53.613281 214.386719 55.515625 214.546875 57.316406 214.734375 C 61.695312 215.191406 66.105469 215.015625 70.464844 214.457031 C 74.84375 213.894531 79.164062 212.976562 83.484375 212.097656 C 85.683594 211.652344 88.003906 211.433594 90.140625 210.734375 C 90.988281 210.457031 91.839844 210.039062 92.585938 209.550781 C 92.625 209.523438 92.660156 209.496094 92.699219 209.46875 C 92.796875 209.351562 92.886719 209.230469 92.949219 209.097656 C 93.324219 208.324219 93.082031 207.292969 92.757812 206.382812 " fill-opacity="1" fill-rule="nonzero"/><path fill="#9cafcc" d="M 51.988281 176.902344 C 53.417969 177.476562 55.085938 177.722656 56.402344 177.867188 C 57.832031 178.058594 59.316406 178.199219 60.816406 178.289062 C 61.109375 178.308594 61.40625 178.320312 61.699219 178.332031 C 64.003906 178.4375 66.320312 178.410156 68.515625 178.203125 C 71.386719 177.90625 75.925781 177.203125 78.652344 175.953125 C 79.117188 175.71875 79.660156 175.40625 80.167969 175.054688 C 80.945312 180.65625 84.214844 185.683594 88.851562 188.972656 C 88.8125 188.21875 88.800781 187.46875 88.816406 186.734375 C 84.855469 183.527344 82.214844 178.871094 81.8125 173.777344 C 81.738281 173.78125 81.664062 173.785156 81.589844 173.789062 C 81.992188 173.246094 82.128906 172.542969 81.691406 172.28125 C 81.515625 172.175781 81.25 172.136719 80.867188 172.210938 C 80.347656 172.3125 79.851562 172.640625 79.375 172.84375 C 78.910156 173.039062 78.453125 173.246094 77.988281 173.445312 C 75.191406 174.40625 70.988281 175.363281 67.96875 175.4375 C 65.6875 175.511719 63.402344 175.511719 61.117188 175.4375 C 59.128906 175.363281 57.0625 175.289062 55.074219 174.921875 C 53.6875 174.746094 52.554688 174.453125 51.308594 173.796875 C 51.128906 173.703125 50.914062 173.570312 50.691406 173.472656 C 50.300781 173.296875 49.894531 173.234375 49.664062 173.714844 C 49.640625 173.761719 49.628906 173.808594 49.609375 173.855469 C 49.355469 174.519531 49.539062 175.230469 50.066406 175.730469 C 50.261719 175.921875 50.480469 176.09375 50.71875 176.25 L 50.195312 178.453125 C 50.074219 180.113281 49.683594 181.773438 49.167969 183.277344 C 49.074219 183.546875 48.964844 183.820312 48.851562 184.09375 L 47.738281 188.78125 C 49.0625 187.582031 50.035156 185.910156 50.703125 184.207031 C 51.566406 181.992188 52.078125 179.394531 51.988281 176.902344 " fill-opacity="1" fill-rule="nonzero"/><path fill="#9cafcc" d="M 69.964844 183.375 C 70.40625 183.375 70.765625 183.734375 70.765625 184.179688 C 70.765625 184.621094 70.40625 184.976562 69.964844 184.976562 C 69.523438 184.976562 69.164062 184.621094 69.164062 184.179688 C 69.164062 183.734375 69.523438 183.375 69.964844 183.375 " fill-opacity="1" fill-rule="nonzero"/><path fill="#9cafcc" d="M 72.914062 183.082031 C 73.355469 183.082031 73.714844 183.441406 73.714844 183.882812 C 73.714844 184.324219 73.355469 184.683594 72.914062 184.683594 C 72.472656 184.683594 72.113281 184.324219 72.113281 183.882812 C 72.113281 183.441406 72.472656 183.082031 72.914062 183.082031 " fill-opacity="1" fill-rule="nonzero"/><path fill="#9cafcc" d="M 75.566406 182.789062 C 76.007812 182.789062 76.367188 183.144531 76.367188 183.589844 C 76.367188 184.03125 76.007812 184.390625 75.566406 184.390625 C 75.121094 184.390625 74.765625 184.03125 74.765625 183.589844 C 74.765625 183.144531 75.121094 182.789062 75.566406 182.789062 " fill-opacity="1" fill-rule="nonzero"/><path fill="#9cafcc" d="M 82.6875 164.703125 C 83.929688 164.703125 86.515625 163.96875 86.515625 163.96875 C 84.632812 163.96875 83.105469 161.421875 83.105469 158.28125 C 83.105469 155.140625 84.632812 152.59375 86.515625 152.59375 C 86.515625 152.59375 83.996094 151.859375 82.6875 151.859375 C 80.558594 151.859375 78.832031 154.734375 78.832031 158.28125 C 78.832031 161.828125 80.558594 164.703125 82.6875 164.703125 " fill-opacity="1" fill-rule="nonzero"/><path fill="#9cafcc" d="M 58.214844 173.476562 C 56.453125 173.164062 54.195312 172.398438 52.757812 171.292969 C 51.515625 170.332031 50.195312 169.113281 49.265625 167.839844 C 47.578125 165.523438 46.695312 162.742188 46.257812 159.9375 C 45.875 157.457031 45.316406 154.007812 46.46875 151.671875 C 47.601562 149.363281 51.039062 147.808594 53.460938 147.414062 C 56.769531 146.871094 61.671875 174.085938 58.214844 173.476562 " fill-opacity="1" fill-rule="nonzero"/><path fill="#fed9e9" d="M 60.816406 178.289062 C 60.941406 186.546875 62.328125 202.15625 65.148438 213.160156 C 65.449219 213.144531 65.75 213.125 66.046875 213.105469 C 63.222656 202.191406 61.828125 186.597656 61.699219 178.332031 C 61.40625 178.320312 61.109375 178.308594 60.816406 178.289062 " fill-opacity="1" fill-rule="nonzero"/><path fill="#fed9e9" d="M 77.261719 187.355469 C 76.941406 187.914062 76.300781 188.007812 75.722656 188.089844 C 74.289062 188.289062 72.863281 188.542969 71.417969 188.667969 C 70.082031 188.78125 68.6875 188.859375 68.203125 187.351562 C 67.855469 186.269531 67.808594 184.6875 68.097656 183.589844 C 68.382812 182.5 69.546875 182.375 70.492188 182.269531 C 71.988281 182.105469 73.5 181.910156 75.011719 181.917969 C 76.144531 181.917969 77.160156 181.871094 77.265625 183.308594 C 77.332031 184.214844 77.570312 185.09375 77.574219 186.003906 C 77.578125 186.476562 77.496094 186.945312 77.261719 187.355469 Z M 75.46875 181.613281 C 75.316406 181.617188 75.164062 181.625 75.011719 181.625 C 73.28125 181.613281 71.515625 181.8125 69.804688 182.0625 C 68.800781 182.210938 68.042969 182.625 67.773438 183.652344 C 67.605469 184.296875 67.660156 184.992188 67.683594 185.648438 C 67.707031 186.359375 67.773438 187.074219 68.027344 187.742188 C 68.519531 189.039062 69.816406 189.050781 71.007812 188.988281 C 72.714844 188.90625 74.402344 188.558594 76.089844 188.332031 C 77.164062 188.191406 77.714844 187.464844 77.847656 186.433594 C 77.992188 185.300781 77.640625 184.128906 77.535156 183.007812 C 77.425781 181.855469 76.460938 181.589844 75.46875 181.613281 " fill-opacity="1" fill-rule="nonzero"/><path fill="#fed9e9" d="M 69.964844 185.734375 C 70.40625 185.734375 70.765625 186.09375 70.765625 186.535156 C 70.765625 186.976562 70.40625 187.335938 69.964844 187.335938 C 69.523438 187.335938 69.164062 186.976562 69.164062 186.535156 C 69.164062 186.09375 69.523438 185.734375 69.964844 185.734375 " fill-opacity="1" fill-rule="nonzero"/><path fill="#fed9e9" d="M 72.914062 185.441406 C 73.355469 185.441406 73.714844 185.796875 73.714844 186.238281 C 73.714844 186.683594 73.355469 187.042969 72.914062 187.042969 C 72.472656 187.042969 72.113281 186.683594 72.113281 186.238281 C 72.113281 185.796875 72.472656 185.441406 72.914062 185.441406 " fill-opacity="1" fill-rule="nonzero"/><path fill="#fed9e9" d="M 75.566406 185.144531 C 76.007812 185.144531 76.367188 185.503906 76.367188 185.945312 C 76.367188 186.386719 76.007812 186.746094 75.566406 186.746094 C 75.121094 186.746094 74.765625 186.386719 74.765625 185.945312 C 74.765625 185.503906 75.121094 185.144531 75.566406 185.144531 " fill-opacity="1" fill-rule="nonzero"/><path fill="#fed9e9" d="M 69.917969 170.722656 C 71.835938 169.460938 73.28125 167.761719 74.453125 165.785156 C 74.511719 165.6875 74.570312 165.589844 74.625 165.488281 C 74.664062 165.425781 74.695312 165.359375 74.734375 165.296875 C 74.808594 165.164062 74.882812 165.027344 74.953125 164.890625 C 75.09375 164.628906 75.230469 164.363281 75.363281 164.089844 C 75.773438 163.246094 76.082031 162.265625 76.300781 161.324219 C 75.242188 161.207031 73.375 159.613281 73.175781 161.472656 C 70.28125 160.429688 67.828125 153.792969 67.828125 153.792969 C 67.828125 153.792969 58.070312 154.320312 55.277344 150.347656 C 53.726562 151.925781 52.046875 155.140625 52.488281 159.441406 C 52.570312 160.226562 53.140625 161.570312 53.007812 162.566406 C 52.882812 163.507812 52.695312 164.425781 52.5 165.097656 C 51.78125 167.59375 52.355469 170.09375 53.953125 172.046875 C 55.277344 172.75 56.886719 173.242188 58.214844 173.476562 C 61.671875 174.085938 65.460938 173.042969 68.550781 171.507812 C 69.03125 171.269531 69.488281 171.007812 69.917969 170.722656 " fill-opacity="1" fill-rule="nonzero"/><path fill="#fed9e9" d="M 19.035156 155.402344 C 17.671875 156.890625 20.164062 160.15625 23.640625 159.738281 C 27.117188 159.316406 25.171875 155.96875 25.171875 155.96875 C 25.171875 155.96875 20.394531 153.914062 19.035156 155.402344 " fill-opacity="1" fill-rule="nonzero"/><path fill="#fed9e9" d="M 113.550781 158.292969 C 112.554688 157.574219 108.027344 157.660156 107.179688 158.695312 C 106.335938 159.726562 106.265625 162.597656 109.882812 162.40625 C 113.503906 162.21875 115.148438 159.445312 113.550781 158.292969 " fill-opacity="1" fill-rule="nonzero"/><g clip-path="url(#aa8f1eb314)"><path fill="#232946" d="M 24.839844 156.246094 C 24.859375 156.246094 24.875 156.261719 24.875 156.28125 C 24.875 156.300781 24.859375 156.3125 24.839844 156.316406 C 24.839844 156.316406 24.65625 156.320312 24.335938 156.328125 C 24.175781 156.328125 23.980469 156.347656 23.757812 156.332031 C 23.53125 156.316406 23.277344 156.300781 23 156.28125 C 22.71875 156.25 22.417969 156.148438 22.125 156.050781 C 21.824219 155.953125 21.511719 155.847656 21.191406 155.769531 C 20.867188 155.699219 20.527344 155.671875 20.21875 155.773438 C 20.054688 155.835938 19.914062 155.902344 19.785156 156.007812 C 19.660156 156.109375 19.558594 156.238281 19.496094 156.382812 C 19.355469 156.667969 19.40625 157.015625 19.59375 157.273438 C 19.679688 157.40625 19.816406 157.523438 19.933594 157.609375 C 20.085938 157.699219 20.234375 157.804688 20.382812 157.875 C 20.53125 157.941406 20.675781 158.011719 20.824219 158.070312 C 20.976562 158.128906 21.125 158.183594 21.269531 158.234375 C 21.566406 158.320312 21.851562 158.40625 22.117188 158.460938 C 22.382812 158.527344 22.628906 158.570312 22.847656 158.617188 C 23.066406 158.65625 23.257812 158.691406 23.414062 158.71875 C 23.730469 158.769531 23.910156 158.800781 23.910156 158.800781 C 23.929688 158.804688 23.941406 158.820312 23.9375 158.839844 C 23.933594 158.855469 23.921875 158.867188 23.902344 158.867188 C 23.902344 158.867188 23.71875 158.851562 23.398438 158.828125 C 23.238281 158.808594 23.046875 158.789062 22.824219 158.765625 C 22.601562 158.734375 22.347656 158.710938 22.078125 158.652344 C 21.804688 158.605469 21.511719 158.53125 21.203125 158.457031 C 21.050781 158.40625 20.894531 158.359375 20.734375 158.308594 C 20.574219 158.253906 20.414062 158.171875 20.25 158.101562 C 20.085938 158.023438 19.949219 157.925781 19.792969 157.839844 C 19.625 157.722656 19.484375 157.601562 19.367188 157.433594 C 19.25 157.273438 19.164062 157.082031 19.136719 156.875 C 19.105469 156.667969 19.140625 156.449219 19.226562 156.261719 C 19.3125 156.070312 19.449219 155.90625 19.605469 155.78125 C 19.6875 155.722656 19.769531 155.664062 19.863281 155.621094 C 19.960938 155.566406 20.027344 155.550781 20.128906 155.507812 C 20.515625 155.386719 20.90625 155.429688 21.25 155.511719 C 21.59375 155.59375 21.90625 155.71875 22.199219 155.828125 C 22.496094 155.941406 22.761719 156.042969 23.027344 156.085938 C 23.296875 156.117188 23.542969 156.148438 23.761719 156.175781 C 23.980469 156.210938 24.179688 156.203125 24.335938 156.214844 C 24.65625 156.234375 24.839844 156.246094 24.839844 156.246094 Z M 20.171875 150.828125 C 19.140625 150.238281 17.175781 149.84375 17.765625 151.757812 C 18.0625 152.691406 19.046875 153.898438 19.488281 154.785156 C 18.953125 154.382812 18.421875 153.980469 17.894531 153.574219 C 17.449219 153.230469 17.035156 152.738281 16.4375 152.6875 C 15.957031 152.648438 15.324219 152.890625 15.222656 153.421875 C 15.070312 154.226562 16.203125 155.058594 16.675781 155.566406 C 16.953125 155.863281 17.277344 156.152344 17.519531 156.476562 C 17.09375 156.203125 16.644531 155.96875 16.179688 155.757812 C 15.589844 155.496094 14.449219 154.90625 14.277344 155.933594 C 14.132812 156.867188 14.917969 157.3125 15.605469 157.851562 C 16.292969 158.390625 16.78125 158.980469 17.371094 159.570312 C 16.832031 159.375 14.476562 158.292969 14.476562 159.519531 C 14.476562 160.308594 16.539062 161.488281 16.980469 162.222656 C 17.617188 163.207031 17.914062 164.238281 18.894531 165.023438 C 19.574219 165.59375 20.511719 166.207031 21.476562 166.488281 C 22.050781 164.570312 23.488281 162.714844 24.757812 161.554688 C 25.5 160.875 26.570312 159.824219 27.683594 159.5 C 27.027344 157.527344 25.191406 155.457031 24.203125 154.265625 C 23.121094 152.9375 21.695312 151.660156 20.171875 150.828125 " fill-opacity="1" fill-rule="nonzero"/></g><g clip-path="url(#c9a902d636)"><path fill="#232946" d="M 113.242188 159.527344 C 113.210938 159.734375 113.125 159.925781 113.007812 160.085938 C 112.890625 160.253906 112.75 160.378906 112.582031 160.492188 C 112.429688 160.582031 112.289062 160.679688 112.128906 160.753906 C 111.960938 160.824219 111.800781 160.90625 111.640625 160.960938 C 111.480469 161.011719 111.324219 161.0625 111.171875 161.109375 C 110.863281 161.1875 110.570312 161.261719 110.296875 161.304688 C 110.027344 161.363281 109.773438 161.386719 109.550781 161.417969 C 109.328125 161.441406 109.136719 161.460938 108.976562 161.480469 C 108.65625 161.503906 108.472656 161.519531 108.472656 161.519531 C 108.453125 161.519531 108.4375 161.507812 108.4375 161.488281 C 108.4375 161.472656 108.449219 161.457031 108.464844 161.453125 C 108.464844 161.453125 108.644531 161.421875 108.960938 161.371094 C 109.117188 161.34375 109.308594 161.308594 109.53125 161.269531 C 109.746094 161.222656 109.992188 161.179688 110.257812 161.117188 C 110.523438 161.058594 110.808594 160.976562 111.105469 160.886719 C 111.25 160.835938 111.398438 160.78125 111.550781 160.722656 C 111.703125 160.664062 111.84375 160.59375 111.992188 160.527344 C 112.144531 160.457031 112.289062 160.351562 112.441406 160.261719 C 112.558594 160.175781 112.695312 160.058594 112.78125 159.929688 C 112.96875 159.667969 113.019531 159.320312 112.882812 159.035156 C 112.820312 158.890625 112.714844 158.765625 112.589844 158.660156 C 112.464844 158.558594 112.320312 158.488281 112.15625 158.425781 C 111.847656 158.324219 111.507812 158.351562 111.1875 158.425781 C 110.863281 158.5 110.550781 158.605469 110.253906 158.703125 C 109.957031 158.800781 109.65625 158.902344 109.375 158.933594 C 109.097656 158.953125 108.84375 158.96875 108.617188 158.984375 C 108.394531 159 108.199219 158.980469 108.039062 158.984375 C 107.71875 158.972656 107.535156 158.96875 107.535156 158.96875 C 107.515625 158.96875 107.5 158.949219 107.5 158.929688 C 107.5 158.914062 107.515625 158.898438 107.535156 158.898438 C 107.535156 158.898438 107.71875 158.886719 108.039062 158.871094 C 108.199219 158.855469 108.394531 158.863281 108.613281 158.828125 C 108.832031 158.804688 109.078125 158.773438 109.347656 158.742188 C 109.613281 158.699219 109.878906 158.59375 110.175781 158.484375 C 110.46875 158.375 110.78125 158.25 111.125 158.164062 C 111.46875 158.085938 111.859375 158.039062 112.246094 158.160156 C 112.347656 158.203125 112.414062 158.21875 112.511719 158.273438 C 112.605469 158.320312 112.6875 158.378906 112.769531 158.4375 C 112.925781 158.5625 113.0625 158.722656 113.148438 158.914062 C 113.238281 159.101562 113.269531 159.320312 113.242188 159.527344 Z M 115.003906 162.222656 C 115.59375 161.632812 116.082031 161.042969 116.769531 160.503906 C 117.457031 159.964844 118.246094 159.519531 118.097656 158.589844 C 117.925781 157.558594 116.785156 158.148438 116.195312 158.410156 C 115.730469 158.617188 115.28125 158.855469 114.855469 159.128906 C 115.097656 158.804688 115.421875 158.515625 115.699219 158.21875 C 116.175781 157.710938 117.304688 156.882812 117.152344 156.078125 C 117.050781 155.542969 116.417969 155.300781 115.9375 155.339844 C 115.339844 155.390625 114.925781 155.882812 114.480469 156.226562 C 113.953125 156.632812 113.421875 157.035156 112.886719 157.4375 C 113.328125 156.550781 114.3125 155.347656 114.609375 154.410156 C 115.199219 152.496094 113.234375 152.890625 112.203125 153.480469 C 110.679688 154.3125 109.253906 155.589844 108.171875 156.917969 C 107.183594 158.113281 105.335938 160.191406 104.683594 162.171875 C 105.457031 161.925781 106.339844 162.007812 107.457031 162.609375 C 109.042969 163.464844 110.3125 165.027344 111.707031 166.15625 C 112.441406 166.746094 112.851562 167.378906 113.023438 168.03125 C 113.183594 167.914062 113.339844 167.792969 113.480469 167.675781 C 114.460938 166.890625 114.757812 165.855469 115.394531 164.875 C 115.835938 164.136719 117.902344 162.960938 117.902344 162.171875 C 117.902344 160.945312 115.542969 162.027344 115.003906 162.222656 " fill-opacity="1" fill-rule="nonzero"/></g><path fill="#232946" d="M 73.207031 151.585938 C 70.425781 149.714844 66.398438 148.3125 63.542969 147.765625 C 60.234375 147.144531 56.769531 146.871094 53.460938 147.414062 C 52.675781 147.542969 51.785156 147.792969 50.902344 148.148438 C 49.617188 149.296875 48.734375 151.171875 48.753906 152.84375 C 48.761719 153.839844 49.042969 154.808594 49.507812 155.6875 C 49.636719 155.929688 51.328125 158.214844 51.359375 158.175781 C 50.179688 159.636719 51.546875 161.457031 53.007812 162.566406 C 53.140625 161.570312 53.203125 160.542969 53.121094 159.757812 C 52.679688 155.457031 53.964844 152.75 55.515625 151.167969 C 58.308594 155.144531 62.78125 155.421875 67.378906 154.804688 C 67.320312 157.375 70.617188 161.4375 73.511719 162.484375 C 74.128906 161.640625 75.242188 161.207031 76.300781 161.324219 C 76.339844 161.15625 76.375 160.988281 76.410156 160.820312 C 77.09375 157.464844 76.167969 153.578125 73.207031 151.585938 " fill-opacity="1" fill-rule="nonzero"/><path fill="#232946" d="M 75.617188 162.660156 C 75.617188 162.660156 75.558594 162.679688 75.457031 162.722656 C 75.410156 162.742188 75.351562 162.78125 75.285156 162.828125 C 75.214844 162.871094 75.148438 162.929688 75.082031 163 C 75.003906 163.066406 74.949219 163.15625 74.878906 163.242188 C 74.824219 163.335938 74.753906 163.433594 74.707031 163.542969 C 74.65625 163.652344 74.605469 163.765625 74.570312 163.886719 C 74.53125 164.003906 74.503906 164.128906 74.472656 164.25 C 74.425781 164.5 74.394531 164.75 74.390625 164.984375 C 74.386719 165.222656 74.398438 165.441406 74.425781 165.625 C 74.433594 165.683594 74.441406 165.734375 74.453125 165.785156 C 74.511719 165.6875 74.570312 165.589844 74.625 165.488281 C 74.628906 165.4375 74.628906 165.390625 74.632812 165.335938 C 74.640625 165.335938 74.648438 165.335938 74.65625 165.332031 C 74.65625 165.332031 74.683594 165.320312 74.734375 165.296875 C 74.808594 165.164062 74.882812 165.027344 74.953125 164.890625 C 74.917969 164.910156 74.878906 164.925781 74.847656 164.945312 C 74.78125 164.980469 74.707031 165 74.65625 165.019531 C 74.65625 165.011719 74.65625 165.007812 74.65625 165 C 74.679688 164.777344 74.710938 164.542969 74.761719 164.3125 C 74.789062 164.199219 74.808594 164.082031 74.84375 163.972656 C 74.878906 163.859375 74.910156 163.753906 74.953125 163.652344 C 74.992188 163.546875 75.039062 163.457031 75.082031 163.367188 C 75.136719 163.285156 75.175781 163.195312 75.230469 163.128906 C 75.285156 163.0625 75.328125 162.992188 75.378906 162.949219 C 75.429688 162.898438 75.46875 162.851562 75.515625 162.824219 C 75.601562 162.757812 75.648438 162.71875 75.648438 162.71875 C 75.660156 162.710938 75.667969 162.695312 75.660156 162.679688 C 75.65625 162.660156 75.632812 162.652344 75.617188 162.660156 " fill-opacity="1" fill-rule="nonzero"/><path fill="#232946" d="M 58.941406 165.425781 C 58.976562 165.332031 59.03125 165.257812 59.089844 165.1875 C 59.121094 165.152344 59.15625 165.121094 59.183594 165.089844 C 59.21875 165.058594 59.257812 165.035156 59.292969 165.011719 C 59.363281 164.953125 59.445312 164.933594 59.515625 164.890625 C 59.589844 164.863281 59.660156 164.847656 59.722656 164.824219 C 59.785156 164.800781 59.851562 164.800781 59.898438 164.789062 C 59.996094 164.769531 60.054688 164.761719 60.054688 164.761719 C 60.054688 164.761719 59.996094 164.75 59.898438 164.730469 C 59.847656 164.726562 59.792969 164.707031 59.71875 164.714844 C 59.644531 164.71875 59.5625 164.710938 59.472656 164.730469 C 59.386719 164.757812 59.28125 164.761719 59.1875 164.820312 C 59.140625 164.84375 59.089844 164.863281 59.042969 164.894531 C 58.996094 164.929688 58.949219 164.96875 58.90625 165.003906 C 58.824219 165.089844 58.734375 165.183594 58.683594 165.300781 C 58.621094 165.414062 58.59375 165.542969 58.574219 165.664062 C 58.570312 165.730469 58.5625 165.792969 58.566406 165.855469 L 58.585938 166.042969 C 58.613281 166.164062 58.644531 166.28125 58.703125 166.382812 C 58.75 166.492188 58.816406 166.578125 58.882812 166.660156 C 58.941406 166.746094 59.023438 166.804688 59.085938 166.867188 C 59.15625 166.921875 59.230469 166.960938 59.289062 167 C 59.34375 167.042969 59.40625 167.058594 59.453125 167.082031 C 59.546875 167.121094 59.601562 167.136719 59.601562 167.136719 C 59.601562 167.136719 59.558594 167.101562 59.484375 167.03125 C 59.449219 166.996094 59.398438 166.964844 59.355469 166.914062 C 59.3125 166.859375 59.257812 166.808594 59.207031 166.746094 C 59.164062 166.675781 59.101562 166.613281 59.0625 166.53125 C 59.015625 166.453125 58.972656 166.371094 58.941406 166.277344 C 58.898438 166.191406 58.890625 166.089844 58.867188 165.996094 L 58.855469 165.847656 C 58.855469 165.800781 58.863281 165.75 58.867188 165.703125 C 58.878906 165.605469 58.898438 165.507812 58.941406 165.425781 " fill-opacity="1" fill-rule="nonzero"/><path fill="#232946" d="M 56.832031 163.878906 C 56.878906 163.960938 56.902344 164.007812 56.902344 164.007812 C 56.902344 164.007812 56.898438 163.953125 56.890625 163.859375 C 56.875 163.769531 56.847656 163.632812 56.785156 163.484375 C 56.757812 163.40625 56.71875 163.324219 56.671875 163.242188 C 56.621094 163.160156 56.566406 163.078125 56.496094 163 C 56.429688 162.917969 56.351562 162.839844 56.261719 162.773438 C 56.175781 162.703125 56.078125 162.644531 55.980469 162.589844 C 55.875 162.546875 55.773438 162.5 55.664062 162.472656 C 55.558594 162.4375 55.449219 162.429688 55.347656 162.417969 C 55.140625 162.398438 54.949219 162.417969 54.789062 162.449219 C 54.625 162.484375 54.5 162.523438 54.414062 162.5625 C 54.328125 162.597656 54.28125 162.621094 54.28125 162.621094 C 54.28125 162.621094 54.335938 162.621094 54.429688 162.617188 C 54.519531 162.613281 54.652344 162.617188 54.804688 162.617188 C 54.878906 162.621094 54.960938 162.628906 55.046875 162.632812 C 55.132812 162.644531 55.21875 162.660156 55.3125 162.671875 C 55.398438 162.691406 55.492188 162.714844 55.582031 162.746094 C 55.675781 162.769531 55.761719 162.816406 55.847656 162.855469 C 55.933594 162.898438 56.015625 162.945312 56.09375 163 C 56.167969 163.058594 56.242188 163.113281 56.308594 163.175781 C 56.441406 163.300781 56.546875 163.441406 56.636719 163.5625 C 56.722656 163.6875 56.789062 163.796875 56.832031 163.878906 " fill-opacity="1" fill-rule="nonzero"/><path fill="#232946" d="M 67.5625 163.902344 C 67.527344 163.824219 67.476562 163.734375 67.417969 163.632812 C 67.355469 163.53125 67.273438 163.425781 67.175781 163.316406 C 66.984375 163.097656 66.71875 162.863281 66.371094 162.714844 C 66.199219 162.640625 66.011719 162.585938 65.816406 162.558594 C 65.71875 162.542969 65.617188 162.539062 65.515625 162.539062 C 65.464844 162.539062 65.417969 162.542969 65.371094 162.542969 C 65.328125 162.542969 65.265625 162.550781 65.222656 162.558594 C 64.832031 162.605469 64.457031 162.734375 64.136719 162.910156 C 63.816406 163.085938 63.546875 163.292969 63.34375 163.503906 C 63.144531 163.714844 63.011719 163.914062 62.929688 164.0625 C 62.886719 164.136719 62.867188 164.195312 62.847656 164.238281 C 62.828125 164.277344 62.820312 164.300781 62.820312 164.300781 C 62.8125 164.316406 62.816406 164.339844 62.835938 164.347656 C 62.851562 164.355469 62.871094 164.351562 62.882812 164.332031 C 62.882812 164.332031 62.929688 164.25 63.023438 164.121094 C 63.109375 163.988281 63.261719 163.808594 63.46875 163.632812 C 63.574219 163.542969 63.6875 163.449219 63.816406 163.363281 C 63.945312 163.277344 64.089844 163.199219 64.246094 163.125 C 64.550781 162.988281 64.898438 162.871094 65.253906 162.839844 C 65.304688 162.835938 65.335938 162.832031 65.382812 162.832031 C 65.429688 162.832031 65.480469 162.824219 65.523438 162.828125 C 65.605469 162.832031 65.691406 162.835938 65.777344 162.851562 C 65.945312 162.875 66.109375 162.917969 66.261719 162.980469 C 66.570312 163.101562 66.824219 163.285156 67.027344 163.464844 C 67.125 163.558594 67.207031 163.652344 67.28125 163.734375 C 67.355469 163.816406 67.414062 163.894531 67.460938 163.960938 C 67.550781 164.09375 67.601562 164.171875 67.601562 164.171875 C 67.609375 164.1875 67.628906 164.191406 67.640625 164.1875 C 67.660156 164.179688 67.667969 164.160156 67.660156 164.144531 C 67.660156 164.144531 67.652344 164.121094 67.636719 164.078125 C 67.621094 164.039062 67.601562 163.976562 67.5625 163.902344 " fill-opacity="1" fill-rule="nonzero"/><path fill="#232946" d="M 63.429688 161.328125 C 64.050781 160.914062 64.621094 160.789062 65.339844 160.726562 C 65.667969 160.683594 67.074219 160.507812 66.574219 159.871094 C 66.191406 159.472656 64.777344 159.59375 64.289062 159.710938 C 63.640625 159.875 62.488281 160.296875 62.273438 161.023438 C 62 161.980469 62.964844 161.636719 63.429688 161.328125 " fill-opacity="1" fill-rule="nonzero"/><path fill="#232946" d="M 57.085938 161.4375 C 57.511719 161.796875 58.429688 162.246094 58.269531 161.265625 C 58.132812 160.519531 57.039062 159.96875 56.414062 159.730469 C 55.941406 159.554688 55.367188 159.4375 54.863281 159.441406 C 54.667969 159.441406 54.355469 159.539062 54.167969 159.691406 C 53.992188 159.832031 53.929688 160.023438 54.191406 160.226562 C 54.464844 160.441406 54.921875 160.554688 55.253906 160.621094 C 55.964844 160.765625 56.515625 160.957031 57.085938 161.4375 " fill-opacity="1" fill-rule="nonzero"/><path fill="#232946" d="M 56.730469 168.300781 L 56.515625 168.5 C 57.519531 169.582031 58.765625 169.996094 60.015625 169.996094 C 61.230469 169.996094 62.453125 169.605469 63.472656 169.042969 L 63.332031 168.785156 C 61.363281 169.867188 58.597656 170.304688 56.730469 168.300781 " fill-opacity="1" fill-rule="nonzero"/></svg>