<svg xmlns="http://www.w3.org/2000/svg" xmlns:xlink="http://www.w3.org/1999/xlink" width="500" zoomAndPan="magnify" viewBox="0 0 375 374.999991" height="500" preserveAspectRatio="xMidYMid meet" version="1.0"><defs><clipPath id="3da4461108"><path d="M 35.921875 35.921875 L 338.921875 35.921875 L 338.921875 338.921875 L 35.921875 338.921875 Z M 35.921875 35.921875 " clip-rule="nonzero"/></clipPath></defs><path fill="#ffffff" d="M 132.445312 337.4375 C 127.914062 337.4375 123.648438 335.664062 120.441406 332.457031 L 42.570312 254.585938 C 39.363281 251.378906 37.59375 247.113281 37.59375 242.582031 L 37.59375 132.445312 C 37.59375 127.914062 39.363281 123.648438 42.570312 120.441406 L 120.441406 42.570312 C 123.648438 39.363281 127.914062 37.59375 132.445312 37.59375 L 242.570312 37.59375 C 247.101562 37.59375 251.367188 39.363281 254.578125 42.570312 L 332.445312 120.441406 C 335.65625 123.648438 337.425781 127.914062 337.425781 132.445312 L 337.425781 242.570312 C 337.425781 247.101562 335.65625 251.367188 332.445312 254.578125 L 254.578125 332.445312 C 251.367188 335.65625 247.101562 337.425781 242.570312 337.425781 L 132.445312 337.425781 Z M 132.445312 337.4375 " fill-opacity="1" fill-rule="nonzero"/><g clip-path="url(#3da4461108)"><path fill="#cc482b" d="M 242.582031 39.261719 C 246.667969 39.261719 250.523438 40.855469 253.40625 43.75 L 331.277344 121.621094 C 334.171875 124.515625 335.765625 128.359375 335.765625 132.445312 L 335.765625 242.570312 C 335.765625 246.65625 334.171875 250.511719 331.277344 253.394531 L 253.40625 331.265625 C 250.511719 334.164062 246.667969 335.753906 242.582031 335.753906 L 132.445312 335.753906 C 128.359375 335.753906 124.507812 334.164062 121.621094 331.265625 L 43.75 253.40625 C 40.855469 250.511719 39.261719 246.667969 39.261719 242.582031 L 39.261719 132.445312 C 39.261719 128.359375 40.855469 124.507812 43.75 121.621094 L 121.621094 43.75 C 124.515625 40.855469 128.359375 39.261719 132.445312 39.261719 L 242.570312 39.261719 M 242.570312 35.921875 L 132.445312 35.921875 C 127.503906 35.921875 122.757812 37.882812 119.25 41.390625 L 41.390625 119.261719 C 37.894531 122.757812 35.921875 127.503906 35.921875 132.457031 L 35.921875 242.582031 C 35.921875 247.527344 37.882812 252.269531 41.390625 255.777344 L 119.261719 333.648438 C 122.757812 337.148438 127.503906 339.117188 132.457031 339.117188 L 242.582031 339.117188 C 247.527344 339.117188 252.269531 337.148438 255.777344 333.648438 L 333.648438 255.78125 C 337.148438 252.28125 339.117188 247.539062 339.117188 242.582031 L 339.117188 132.445312 C 339.117188 127.503906 337.160156 122.757812 333.648438 119.25 L 255.769531 41.390625 C 252.269531 37.894531 247.527344 35.921875 242.570312 35.921875 Z M 242.570312 35.921875 " fill-opacity="1" fill-rule="nonzero"/></g><path fill="#cc482b" d="M 239.273438 49.585938 L 135.753906 49.585938 C 132.3125 49.585938 129.015625 50.957031 126.578125 53.382812 L 53.382812 126.578125 C 50.957031 129.003906 49.585938 132.3125 49.585938 135.753906 L 49.585938 239.273438 C 49.585938 242.714844 50.957031 246.011719 53.382812 248.449219 L 126.578125 321.644531 C 129.003906 324.070312 132.3125 325.441406 135.753906 325.441406 L 239.273438 325.441406 C 242.714844 325.441406 246.011719 324.070312 248.449219 321.644531 L 321.644531 248.449219 C 324.070312 246.023438 325.441406 242.714844 325.441406 239.273438 L 325.441406 135.753906 C 325.441406 132.3125 324.070312 129.015625 321.644531 126.578125 L 248.441406 53.382812 C 246.011719 50.957031 242.703125 49.585938 239.261719 49.585938 Z M 239.273438 49.585938 " fill-opacity="1" fill-rule="nonzero"/><path fill="#ffffff" d="M 115.507812 287.789062 L 120.464844 281.839844 C 123.546875 284.691406 127.636719 286.617188 131.421875 286.617188 C 135.910156 286.617188 138.304688 284.691406 138.304688 281.660156 C 138.304688 278.453125 135.6875 277.464844 131.835938 275.835938 L 126.066406 273.386719 C 121.6875 271.582031 117.324219 268.085938 117.324219 261.78125 C 117.324219 254.730469 123.503906 249.308594 132.246094 249.308594 C 137.257812 249.308594 142.269531 251.292969 145.765625 254.84375 L 141.390625 260.265625 C 138.648438 257.996094 135.800781 256.714844 132.234375 256.714844 C 128.449219 256.714844 126 258.40625 126 261.257812 C 126 264.34375 129.082031 265.457031 132.757812 266.917969 L 138.417969 269.3125 C 143.660156 271.472656 147.101562 274.789062 147.101562 281.027344 C 147.101562 288.078125 141.210938 294.078125 131.242188 294.078125 C 125.476562 294.078125 119.707031 291.808594 115.507812 287.789062 Z M 115.507812 287.789062 " fill-opacity="1" fill-rule="nonzero"/><path fill="#ffffff" d="M 161.972656 257.292969 L 149.84375 257.292969 L 149.84375 250.121094 L 182.832031 250.121094 L 182.832031 257.292969 L 170.589844 257.292969 L 170.589844 293.253906 L 161.960938 293.253906 L 161.960938 257.292969 Z M 161.972656 257.292969 " fill-opacity="1" fill-rule="nonzero"/><path fill="#ffffff" d="M 185.859375 271.515625 C 185.859375 257.472656 193.734375 249.308594 205.148438 249.308594 C 216.566406 249.308594 224.441406 257.527344 224.441406 271.515625 C 224.441406 285.503906 216.566406 294.070312 205.148438 294.070312 C 193.734375 294.070312 185.859375 285.503906 185.859375 271.515625 Z M 215.640625 271.515625 C 215.640625 262.25 211.566406 256.714844 205.148438 256.714844 C 198.734375 256.714844 194.660156 262.25 194.660156 271.515625 C 194.660156 280.78125 198.734375 286.605469 205.148438 286.605469 C 211.566406 286.605469 215.640625 280.714844 215.640625 271.515625 Z M 215.640625 271.515625 " fill-opacity="1" fill-rule="nonzero"/><path fill="#ffffff" d="M 232.902344 250.132812 L 247.070312 250.132812 C 256.625 250.132812 263.976562 253.453125 263.976562 263.652344 C 263.976562 273.855469 256.570312 277.929688 247.304688 277.929688 L 241.535156 277.929688 L 241.535156 293.253906 L 232.902344 293.253906 L 232.902344 250.121094 Z M 246.714844 271.113281 C 252.660156 271.113281 255.511719 268.609375 255.511719 263.652344 C 255.511719 258.695312 252.359375 256.949219 246.425781 256.949219 L 241.523438 256.949219 L 241.523438 271.113281 Z M 246.714844 271.113281 " fill-opacity="1" fill-rule="nonzero"/><path fill="#ffffff" d="M 221.566406 93.476562 C 217.023438 93.769531 213.59375 97.742188 213.59375 102.296875 L 213.59375 139.808594 L 209.683594 139.808594 L 209.683594 86.070312 C 209.683594 81.515625 206.253906 77.550781 201.707031 77.25 C 196.730469 76.929688 192.597656 80.871094 192.597656 85.78125 L 192.597656 139.796875 L 188.6875 139.796875 L 188.6875 79.558594 C 188.6875 74.835938 184.871094 71.015625 180.148438 71.015625 C 175.425781 71.015625 171.605469 74.835938 171.605469 79.558594 L 171.605469 139.808594 L 167.695312 139.808594 L 167.695312 94.46875 C 167.695312 89.914062 164.265625 85.949219 159.722656 85.648438 C 154.742188 85.324219 150.613281 89.269531 150.613281 94.179688 L 150.613281 154.429688 C 150.613281 154.429688 150.613281 154.476562 150.613281 154.507812 C 150.613281 154.53125 150.613281 154.554688 150.613281 154.585938 L 150.613281 167.917969 L 138.117188 150.824219 C 135.429688 147.148438 130.308594 145.96875 126.476562 148.417969 C 122.265625 151.089844 121.253906 156.714844 124.148438 160.679688 L 144.6875 188.757812 C 148.839844 194.4375 152.617188 200.371094 156.371094 206.332031 C 162.996094 216.832031 174.691406 223.816406 188.019531 223.816406 L 193.3125 223.816406 C 213.96875 223.816406 230.710938 207.066406 230.710938 186.417969 L 230.710938 101.996094 C 230.710938 97.085938 226.578125 93.144531 221.597656 93.46875 Z M 221.566406 93.476562 " fill-opacity="1" fill-rule="nonzero"/></svg>