<svg xmlns="http://www.w3.org/2000/svg" viewBox="0 0 1200 800" fill="none">
  <defs>
    <linearGradient id="bg" x1="120" y1="60" x2="1080" y2="760" gradientUnits="userSpaceOnUse">
      <stop stop-color="#DDEBFF"/>
      <stop offset="1" stop-color="#E9F9EE"/>
    </linearGradient>
  </defs>
  <rect width="1200" height="800" rx="42" fill="url(#bg)"/>
  <rect x="118" y="122" width="964" height="556" rx="28" fill="#FFFFFF" fill-opacity=".9" stroke="#0F172A" stroke-opacity=".12" stroke-width="2"/>
  <rect x="154" y="160" width="196" height="478" rx="22" fill="#0F172A" fill-opacity=".06"/>
  <rect x="178" y="196" width="148" height="18" rx="9" fill="#0F172A" fill-opacity=".18"/>
  <rect x="178" y="232" width="132" height="14" rx="7" fill="#0F172A" fill-opacity=".12"/>
  <rect x="178" y="260" width="116" height="14" rx="7" fill="#0F172A" fill-opacity=".1"/>
  <rect x="178" y="288" width="124" height="14" rx="7" fill="#0F172A" fill-opacity=".1"/>
  <rect x="382" y="160" width="664" height="76" rx="20" fill="#F8FAFC" stroke="#0F172A" stroke-opacity=".08" stroke-width="2"/>
  <rect x="414" y="188" width="188" height="20" rx="10" fill="#0F172A" fill-opacity=".17"/>
  <rect x="634" y="188" width="124" height="20" rx="10" fill="#0EA5E9" fill-opacity=".3"/>
  <rect x="770" y="188" width="102" height="20" rx="10" fill="#16A34A" fill-opacity=".3"/>
  <rect x="382" y="264" width="324" height="190" rx="22" fill="#FFFFFF" stroke="#0F172A" stroke-opacity=".1" stroke-width="2"/>
  <rect x="414" y="294" width="120" height="14" rx="7" fill="#0F172A" fill-opacity=".15"/>
  <rect x="414" y="330" width="34" height="90" rx="12" fill="#38BDF8" fill-opacity=".58"/>
  <rect x="460" y="358" width="34" height="62" rx="12" fill="#2563EB" fill-opacity=".56"/>
  <rect x="506" y="314" width="34" height="106" rx="12" fill="#0EA5E9" fill-opacity=".62"/>
  <rect x="552" y="344" width="34" height="76" rx="12" fill="#14B8A6" fill-opacity=".62"/>
  <rect x="598" y="298" width="34" height="122" rx="12" fill="#22C55E" fill-opacity=".55"/>
  <rect x="722" y="264" width="324" height="190" rx="22" fill="#FFFFFF" stroke="#0F172A" stroke-opacity=".1" stroke-width="2"/>
  <rect x="754" y="294" width="118" height="14" rx="7" fill="#0F172A" fill-opacity=".15"/>
  <path d="M754 396L810 350L856 370L904 330L960 378L1014 338" stroke="#2563EB" stroke-width="8" stroke-linecap="round" stroke-linejoin="round"/>
  <circle cx="810" cy="350" r="7" fill="#2563EB"/>
  <circle cx="856" cy="370" r="7" fill="#2563EB"/>
  <circle cx="904" cy="330" r="7" fill="#2563EB"/>
  <circle cx="960" cy="378" r="7" fill="#2563EB"/>
  <circle cx="1014" cy="338" r="7" fill="#2563EB"/>
  <rect x="382" y="482" width="664" height="156" rx="22" fill="#FFFFFF" stroke="#0F172A" stroke-opacity=".1" stroke-width="2"/>
  <rect x="414" y="514" width="216" height="16" rx="8" fill="#0F172A" fill-opacity=".16"/>
  <rect x="414" y="546" width="594" height="12" rx="6" fill="#0F172A" fill-opacity=".12"/>
  <rect x="414" y="572" width="548" height="12" rx="6" fill="#0F172A" fill-opacity=".1"/>
  <rect x="414" y="598" width="462" height="12" rx="6" fill="#0F172A" fill-opacity=".08"/>
</svg>
