<svg xmlns="http://www.w3.org/2000/svg" viewBox="0 0 1200 800" fill="none">
  <defs>
    <linearGradient id="bg" x1="140" y1="70" x2="1070" y2="760" gradientUnits="userSpaceOnUse">
      <stop stop-color="#FFE5F1"/>
      <stop offset="1" stop-color="#E1ECFF"/>
    </linearGradient>
  </defs>
  <rect width="1200" height="800" rx="42" fill="url(#bg)"/>
  <rect x="146" y="128" width="612" height="548" rx="30" fill="#FFFFFF" fill-opacity=".92" stroke="#0F172A" stroke-opacity=".12" stroke-width="2"/>
  <rect x="186" y="168" width="532" height="78" rx="18" fill="#F8FAFC" stroke="#0F172A" stroke-opacity=".08" stroke-width="2"/>
  <rect x="214" y="196" width="184" height="22" rx="11" fill="#0F172A" fill-opacity=".15"/>
  <rect x="624" y="186" width="60" height="42" rx="12" fill="#F97316" fill-opacity=".24"/>
  <rect x="186" y="274" width="532" height="362" rx="22" fill="#F8FAFC" stroke="#0F172A" stroke-opacity=".08" stroke-width="2"/>
  <g fill="#0F172A" fill-opacity=".1">
    <rect x="220" y="320" width="62" height="52" rx="10"/>
    <rect x="298" y="320" width="62" height="52" rx="10"/>
    <rect x="376" y="320" width="62" height="52" rx="10"/>
    <rect x="454" y="320" width="62" height="52" rx="10"/>
    <rect x="532" y="320" width="62" height="52" rx="10"/>
    <rect x="610" y="320" width="62" height="52" rx="10"/>
    <rect x="220" y="388" width="62" height="52" rx="10"/>
    <rect x="298" y="388" width="62" height="52" rx="10"/>
    <rect x="376" y="388" width="62" height="52" rx="10"/>
    <rect x="454" y="388" width="62" height="52" rx="10"/>
    <rect x="532" y="388" width="62" height="52" rx="10"/>
    <rect x="610" y="388" width="62" height="52" rx="10"/>
    <rect x="220" y="456" width="62" height="52" rx="10"/>
    <rect x="298" y="456" width="62" height="52" rx="10"/>
    <rect x="376" y="456" width="62" height="52" rx="10"/>
    <rect x="454" y="456" width="62" height="52" rx="10"/>
    <rect x="532" y="456" width="62" height="52" rx="10"/>
    <rect x="610" y="456" width="62" height="52" rx="10"/>
    <rect x="220" y="524" width="62" height="52" rx="10"/>
    <rect x="298" y="524" width="62" height="52" rx="10"/>
    <rect x="376" y="524" width="62" height="52" rx="10"/>
    <rect x="454" y="524" width="62" height="52" rx="10"/>
    <rect x="532" y="524" width="62" height="52" rx="10"/>
    <rect x="610" y="524" width="62" height="52" rx="10"/>
  </g>
  <rect x="376" y="388" width="62" height="52" rx="10" fill="#2563EB" fill-opacity=".65"/>
  <rect x="454" y="388" width="62" height="52" rx="10" fill="#F97316" fill-opacity=".6"/>
  <rect x="794" y="198" width="262" height="474" rx="26" fill="#FFFFFF" fill-opacity=".95" stroke="#0F172A" stroke-opacity=".12" stroke-width="2"/>
  <rect x="826" y="246" width="198" height="20" rx="10" fill="#0F172A" fill-opacity=".14"/>
  <rect x="826" y="284" width="198" height="118" rx="18" fill="#EFF6FF"/>
  <path d="M850 362H1000M850 336H1000M850 310H1000" stroke="#2563EB" stroke-opacity=".35" stroke-width="8" stroke-linecap="round"/>
  <rect x="826" y="426" width="168" height="16" rx="8" fill="#0F172A" fill-opacity=".12"/>
  <rect x="826" y="454" width="144" height="16" rx="8" fill="#0F172A" fill-opacity=".1"/>
  <rect x="826" y="518" width="198" height="56" rx="18" fill="#16A34A"/>
  <rect x="868" y="540" width="114" height="12" rx="6" fill="#FFFFFF" fill-opacity=".9"/>
</svg>
